<svg id="Laag_1" data-name="Laag 1" xmlns="http://www.w3.org/2000/svg" viewBox="0 0 449.87 392.2"><defs><style>.cls-1{fill:#202020;}.cls-2{fill:#fff;}</style></defs><title>logo</title><path class="cls-1" d="M259.07,240.47s39-1,65.76,20.23l-30,39.21s37.82,30.91,43.36,78L388,372.32s6.92,27.21-13.84,66.42c0,0,107.48.46,126.39-112.09,0,0,110.24-62.73,145.3-175.74,0,0-121.51-24.45-224.28,36C421.6,186.89,331.23,141.36,259.07,240.47Z" transform="translate(-196.01 -101.54)"/><path class="cls-2" d="M536.33,251.47A39.44,39.44,0,1,1,575.77,212,39.48,39.48,0,0,1,536.33,251.47Zm0-71.5A32.06,32.06,0,1,0,568.39,212,32.09,32.09,0,0,0,536.33,180Z" transform="translate(-196.01 -101.54)"/><path class="cls-2" d="M517.19,193.5s10.3,33.06,44.44,12.61c0,0,7.23,22.6-17.22,31.37S493.66,215.64,517.19,193.5Z" transform="translate(-196.01 -101.54)"/><path class="cls-1" d="M219.36,306.51S212,145.38,379.27,123.85c0,0,57.2-6.77,89.79,19.07,0,0,41.21-16.61,78.72-16.61,0,0-27.64-13.69-69.5-6.15-3.63.65-14-5.85-17.57-7.07-78.49-27-164.12-6.31-216.91,58.67-25.22,31-42.85,69.44-46.91,109.44-2.79,27.48,1.09,55.24,10.16,81.28,0,0,44.9,150.68,222,129.16,0,0,139-20.91,161.14-180.82,0,0,28.29-42.44,28.29-63,0,0-28.29,39.57-50.43,55.61,0,0-2.46,161.19-177.74,169.18,0,0-54.12-2.46-95.33-30.14,0,0,32.6-23.37,5.54-56.58,0,0,23.37-33.83-2.46-51S261.8,328,261.8,328,255.64,299.75,219.36,306.51Z" transform="translate(-196.01 -101.54)"/></svg>